<svg width="20" height="12" viewBox="0 0 20 12" fill="none" xmlns="http://www.w3.org/2000/svg">
<path d="M9.11612 1.11602C9.60427 0.627861 10.3957 0.627861 10.8839 1.11602L18.8388 9.07097C19.327 9.55912 19.327 10.3506 18.8388 10.8387C18.3507 11.3269 17.5592 11.3269 17.0711 10.8387L10 3.76767L2.92893 10.8387C2.44078 11.3269 1.64932 11.3269 1.16117 10.8387C0.67301 10.3506 0.67301 9.55912 1.16117 9.07097L9.11612 1.11602ZM10 2L8.75 2L8.75 1.9999L10 1.9999L11.25 1.9999L11.25 2L10 2Z" fill="url(#paint0_linear_351_964)"/>
<defs>
<linearGradient id="paint0_linear_351_964" x1="0.5" y1="10.4999" x2="17.5" y2="2" gradientUnits="userSpaceOnUse">
<stop stop-color="#A5B4FC"/>
<stop offset="1" stop-color="#D8B4FE"/>
</linearGradient>
</defs>
</svg>
