<svg width="18" height="18" viewBox="0 0 18 18" fill="none" xmlns="http://www.w3.org/2000/svg">
<path fill-rule="evenodd" clip-rule="evenodd" d="M2.75 2.75C2.05964 2.75 1.5 3.30964 1.5 4V15.25C1.5 15.9404 2.05964 16.5 2.75 16.5H15.25C15.9404 16.5 16.5 15.9404 16.5 15.25V4C16.5 3.30964 15.9404 2.75 15.25 2.75H2.75ZM0.25 4C0.25 2.61929 1.36929 1.5 2.75 1.5H15.25C16.6307 1.5 17.75 2.61929 17.75 4V15.25C17.75 16.6307 16.6307 17.75 15.25 17.75H2.75C1.36929 17.75 0.25 16.6307 0.25 15.25V4Z" fill="url(#paint0_linear_102_1921)"/>
<path d="M10.5625 9C11.0803 9 11.5 8.58027 11.5 8.0625C11.5 7.54473 11.0803 7.125 10.5625 7.125C10.0447 7.125 9.625 7.54473 9.625 8.0625C9.625 8.58027 10.0447 9 10.5625 9Z" fill="url(#paint1_linear_102_1921)"/>
<path d="M13.6875 9C14.2053 9 14.625 8.58027 14.625 8.0625C14.625 7.54473 14.2053 7.125 13.6875 7.125C13.1697 7.125 12.75 7.54473 12.75 8.0625C12.75 8.58027 13.1697 9 13.6875 9Z" fill="url(#paint2_linear_102_1921)"/>
<path d="M10.5625 12.125C11.0803 12.125 11.5 11.7053 11.5 11.1875C11.5 10.6697 11.0803 10.25 10.5625 10.25C10.0447 10.25 9.625 10.6697 9.625 11.1875C9.625 11.7053 10.0447 12.125 10.5625 12.125Z" fill="url(#paint3_linear_102_1921)"/>
<path d="M13.6875 12.125C14.2053 12.125 14.625 11.7053 14.625 11.1875C14.625 10.6697 14.2053 10.25 13.6875 10.25C13.1697 10.25 12.75 10.6697 12.75 11.1875C12.75 11.7053 13.1697 12.125 13.6875 12.125Z" fill="url(#paint4_linear_102_1921)"/>
<path d="M4.3125 12.125C4.83027 12.125 5.25 11.7053 5.25 11.1875C5.25 10.6697 4.83027 10.25 4.3125 10.25C3.79473 10.25 3.375 10.6697 3.375 11.1875C3.375 11.7053 3.79473 12.125 4.3125 12.125Z" fill="url(#paint5_linear_102_1921)"/>
<path d="M7.4375 12.125C7.95527 12.125 8.375 11.7053 8.375 11.1875C8.375 10.6697 7.95527 10.25 7.4375 10.25C6.91973 10.25 6.5 10.6697 6.5 11.1875C6.5 11.7053 6.91973 12.125 7.4375 12.125Z" fill="url(#paint6_linear_102_1921)"/>
<path d="M4.3125 15.25C4.83027 15.25 5.25 14.8303 5.25 14.3125C5.25 13.7947 4.83027 13.375 4.3125 13.375C3.79473 13.375 3.375 13.7947 3.375 14.3125C3.375 14.8303 3.79473 15.25 4.3125 15.25Z" fill="url(#paint7_linear_102_1921)"/>
<path d="M7.4375 15.25C7.95527 15.25 8.375 14.8303 8.375 14.3125C8.375 13.7947 7.95527 13.375 7.4375 13.375C6.91973 13.375 6.5 13.7947 6.5 14.3125C6.5 14.8303 6.91973 15.25 7.4375 15.25Z" fill="url(#paint8_linear_102_1921)"/>
<path d="M10.5625 15.25C11.0803 15.25 11.5 14.8303 11.5 14.3125C11.5 13.7947 11.0803 13.375 10.5625 13.375C10.0447 13.375 9.625 13.7947 9.625 14.3125C9.625 14.8303 10.0447 15.25 10.5625 15.25Z" fill="url(#paint9_linear_102_1921)"/>
<path fill-rule="evenodd" clip-rule="evenodd" d="M4 0.25C4.34518 0.25 4.625 0.529822 4.625 0.875V2.125C4.625 2.47018 4.34518 2.75 4 2.75C3.65482 2.75 3.375 2.47018 3.375 2.125V0.875C3.375 0.529822 3.65482 0.25 4 0.25ZM14 0.25C14.3452 0.25 14.625 0.529822 14.625 0.875V2.125C14.625 2.47018 14.3452 2.75 14 2.75C13.6548 2.75 13.375 2.47018 13.375 2.125V0.875C13.375 0.529822 13.6548 0.25 14 0.25Z" fill="url(#paint10_linear_102_1921)"/>
<path fill-rule="evenodd" clip-rule="evenodd" d="M0.875 4.625H17.125V5.875H0.875V4.625Z" fill="url(#paint11_linear_102_1921)"/>
<defs>
<linearGradient id="paint0_linear_102_1921" x1="3.53424e-07" y1="2.19643" x2="16.7392" y2="19.2218" gradientUnits="userSpaceOnUse">
<stop stop-color="#A5B4FC"/>
<stop offset="1" stop-color="#D8B4FE"/>
</linearGradient>
<linearGradient id="paint1_linear_102_1921" x1="9.59821" y1="7.20536" x2="11.5268" y2="9.02679" gradientUnits="userSpaceOnUse">
<stop stop-color="#A5B4FC"/>
<stop offset="1" stop-color="#D8B4FE"/>
</linearGradient>
<linearGradient id="paint2_linear_102_1921" x1="12.7232" y1="7.20536" x2="14.6518" y2="9.02679" gradientUnits="userSpaceOnUse">
<stop stop-color="#A5B4FC"/>
<stop offset="1" stop-color="#D8B4FE"/>
</linearGradient>
<linearGradient id="paint3_linear_102_1921" x1="9.59821" y1="10.3304" x2="11.5268" y2="12.1518" gradientUnits="userSpaceOnUse">
<stop stop-color="#A5B4FC"/>
<stop offset="1" stop-color="#D8B4FE"/>
</linearGradient>
<linearGradient id="paint4_linear_102_1921" x1="12.7232" y1="10.3304" x2="14.6518" y2="12.1518" gradientUnits="userSpaceOnUse">
<stop stop-color="#A5B4FC"/>
<stop offset="1" stop-color="#D8B4FE"/>
</linearGradient>
<linearGradient id="paint5_linear_102_1921" x1="3.34821" y1="10.3304" x2="5.27679" y2="12.1518" gradientUnits="userSpaceOnUse">
<stop stop-color="#A5B4FC"/>
<stop offset="1" stop-color="#D8B4FE"/>
</linearGradient>
<linearGradient id="paint6_linear_102_1921" x1="6.47321" y1="10.3304" x2="8.40179" y2="12.1518" gradientUnits="userSpaceOnUse">
<stop stop-color="#A5B4FC"/>
<stop offset="1" stop-color="#D8B4FE"/>
</linearGradient>
<linearGradient id="paint7_linear_102_1921" x1="3.34821" y1="13.4554" x2="5.27679" y2="15.2768" gradientUnits="userSpaceOnUse">
<stop stop-color="#A5B4FC"/>
<stop offset="1" stop-color="#D8B4FE"/>
</linearGradient>
<linearGradient id="paint8_linear_102_1921" x1="6.47321" y1="13.4554" x2="8.40179" y2="15.2768" gradientUnits="userSpaceOnUse">
<stop stop-color="#A5B4FC"/>
<stop offset="1" stop-color="#D8B4FE"/>
</linearGradient>
<linearGradient id="paint9_linear_102_1921" x1="9.59821" y1="13.4554" x2="11.5268" y2="15.2768" gradientUnits="userSpaceOnUse">
<stop stop-color="#A5B4FC"/>
<stop offset="1" stop-color="#D8B4FE"/>
</linearGradient>
<linearGradient id="paint10_linear_102_1921" x1="3.21429" y1="0.357143" x2="4.36276" y2="5.23817" gradientUnits="userSpaceOnUse">
<stop stop-color="#A5B4FC"/>
<stop offset="1" stop-color="#D8B4FE"/>
</linearGradient>
<linearGradient id="paint11_linear_102_1921" x1="0.642857" y1="4.67857" x2="0.851255" y2="7.23723" gradientUnits="userSpaceOnUse">
<stop stop-color="#A5B4FC"/>
<stop offset="1" stop-color="#D8B4FE"/>
</linearGradient>
</defs>
</svg>
