<svg width="25" height="32" viewBox="0 0 25 32" fill="none" xmlns="http://www.w3.org/2000/svg">
<path d="M12.4496 32C14.2547 32 15.7317 30.5231 15.7317 28.7179H9.16755C9.16755 29.5884 9.51334 30.4232 10.1288 31.0387C10.7443 31.6542 11.5791 32 12.4496 32ZM22.2958 22.1538V13.9487C22.2958 8.91077 19.6045 4.69333 14.9111 3.57744V2.46154C14.9111 1.09949 13.8117 0 12.4496 0C11.0876 0 9.98806 1.09949 9.98806 2.46154V3.57744C5.27832 4.69333 2.60345 8.89436 2.60345 13.9487V22.1538L0.486527 24.2708C-0.547319 25.3046 0.174732 27.0769 1.63524 27.0769H23.2476C24.7081 27.0769 25.4465 25.3046 24.4127 24.2708L22.2958 22.1538Z" fill="url(#paint0_linear_355_149)"/>
<defs>
<linearGradient id="paint0_linear_355_149" x1="0" y1="0" x2="24.6154" y2="32" gradientUnits="userSpaceOnUse">
<stop stop-color="#A5B4FC"/>
<stop offset="1" stop-color="#D8B4FE"/>
</linearGradient>
</defs>
</svg>
