<svg width="14" height="14" viewBox="0 0 14 14" fill="none" xmlns="http://www.w3.org/2000/svg">
<path d="M7 1.4C5.51479 1.4 4.09041 1.99 3.0402 3.0402C1.99 4.09041 1.4 5.51479 1.4 7C1.4 8.48521 1.99 9.90959 3.0402 10.9598C4.09041 12.01 5.51479 12.6 7 12.6C8.48521 12.6 9.90959 12.01 10.9598 10.9598C12.01 9.90959 12.6 8.48521 12.6 7C12.6 5.51479 12.01 4.09041 10.9598 3.0402C9.90959 1.99 8.48521 1.4 7 1.4ZM0 7C0 3.1339 3.1339 0 7 0C10.8661 0 14 3.1339 14 7C14 10.8661 10.8661 14 7 14C3.1339 14 0 10.8661 0 7ZM4.0551 4.0551C4.18637 3.92387 4.36439 3.85015 4.55 3.85015C4.73561 3.85015 4.91363 3.92387 5.0449 4.0551L7 6.0102L8.9551 4.0551C9.01967 3.98824 9.09691 3.93492 9.18232 3.89823C9.26772 3.86154 9.35957 3.84223 9.45252 3.84142C9.54546 3.84062 9.63764 3.85833 9.72367 3.89352C9.8097 3.92872 9.88785 3.9807 9.95358 4.04642C10.0193 4.11215 10.0713 4.1903 10.1065 4.27633C10.1417 4.36236 10.1594 4.45454 10.1586 4.54748C10.1578 4.64043 10.1385 4.73228 10.1018 4.81768C10.0651 4.90309 10.0118 4.98033 9.9449 5.0449L7.9898 7L9.9449 8.9551C10.0724 9.08712 10.143 9.26394 10.1414 9.44748C10.1398 9.63102 10.0662 9.80659 9.93637 9.93637C9.80659 10.0662 9.63102 10.1398 9.44748 10.1414C9.26394 10.143 9.08712 10.0724 8.9551 9.9449L7 7.9898L5.0449 9.9449C4.91288 10.0724 4.73606 10.143 4.55252 10.1414C4.36898 10.1398 4.19341 10.0662 4.06363 9.93637C3.93384 9.80659 3.86022 9.63102 3.85863 9.44748C3.85703 9.26394 3.92759 9.08712 4.0551 8.9551L6.0102 7L4.0551 5.0449C3.92387 4.91363 3.85015 4.73561 3.85015 4.55C3.85015 4.36439 3.92387 4.18637 4.0551 4.0551Z" fill="#FACC15"/>
</svg>
