<svg width="14" height="14" viewBox="0 0 14 14" fill="none" xmlns="http://www.w3.org/2000/svg">
<path fill-rule="evenodd" clip-rule="evenodd" d="M4.32062 0.531421C5.17004 0.179568 6.0806 -0.00102603 7 4.38461e-06C7.9194 -0.00102603 8.82996 0.179568 9.67937 0.531421C10.5287 0.883253 11.3003 1.39939 11.9496 2.0502C12.6005 2.69959 13.1167 3.47117 13.4686 4.32062C13.8204 5.17004 14.001 6.0806 14 7C14.001 7.9194 13.8204 8.82996 13.4686 9.67937C13.1167 10.5288 12.6006 11.3003 11.9497 11.9497C11.3003 12.6006 10.5288 13.1167 9.67937 13.4686C8.82996 13.8204 7.9194 14.001 7 14C6.0806 14.001 5.17004 13.8204 4.32062 13.4686C3.47121 13.1167 2.69967 12.6006 2.0503 11.9497C1.39944 11.3003 0.883271 10.5288 0.531421 9.67937C0.179568 8.82996 -0.00102603 7.9194 4.38461e-06 7C-0.00102603 6.0806 0.179568 5.17004 0.531421 4.32062C0.883271 3.47121 1.39944 2.69967 2.0503 2.0503C2.69967 1.39944 3.47121 0.883271 4.32062 0.531421ZM4.38461e-06 7C4.68805e-06 6.99974 4.95357e-06 6.99948 5.29494e-06 6.99921L0.636368 7L5.29494e-06 7.00078C4.95357e-06 7.00052 4.68805e-06 7.00026 4.38461e-06 7ZM7 14C6.99974 14 6.99948 14 6.99921 14L7 13.3636L7.00078 14C7.00052 14 7.00026 14 7 14ZM14 7C14 7.00026 14 7.00052 14 7.00078L13.3636 7L14 6.99921C14 6.99948 14 6.99974 14 7ZM7 4.38461e-06C7.00026 4.68805e-06 7.00052 4.95357e-06 7.00078 5.29494e-06L7 0.636368L6.99921 5.29494e-06C6.99948 4.95357e-06 6.99974 4.68805e-06 7 4.38461e-06ZM6.99921 1.27273C6.24722 1.2718 5.50244 1.41947 4.80769 1.70726C4.11294 1.99505 3.48189 2.41727 2.95082 2.94969L2.94969 2.95082C2.41727 3.48189 1.99505 4.11294 1.70726 4.80769C1.41947 5.50244 1.2718 6.24722 1.27273 6.99921V7.00078C1.2718 7.75278 1.41947 8.49756 1.70726 9.19231C1.99505 9.88706 2.41727 10.5181 2.94969 11.0492L2.95082 11.0503C3.48189 11.5827 4.11294 12.005 4.80769 12.2927C5.50244 12.5805 6.24721 12.7282 6.99921 12.7273H7.00078C7.75278 12.7282 8.49756 12.5805 9.19231 12.2927C9.88706 12.005 10.5181 11.5827 11.0492 11.0503L11.0503 11.0492C11.5827 10.5181 12.005 9.88706 12.2927 9.19231C12.5805 8.49756 12.7282 7.75278 12.7273 7.00078V6.99921C12.7282 6.24721 12.5805 5.50244 12.2927 4.80769C12.005 4.11294 11.5827 3.48189 11.0503 2.95082L11.0492 2.94969C10.5181 2.41727 9.88706 1.99505 9.19231 1.70726C8.49756 1.41947 7.75278 1.2718 7.00078 1.27273H6.99921ZM10.6318 4.64093C10.8803 4.88945 10.8803 5.29237 10.6318 5.54089L6.81361 9.35907C6.5651 9.60758 6.16217 9.60758 5.91366 9.35907L4.00457 7.44998C3.75605 7.20146 3.75605 6.79854 4.00457 6.55002C4.25309 6.30151 4.65601 6.30151 4.90452 6.55002L6.36364 8.00914L9.73184 4.64093C9.98035 4.39242 10.3833 4.39242 10.6318 4.64093Z" fill="#00DD86"/>
</svg>
